<svg width="1600" height="800" viewBox="0 0 1600 800" fill="none" xmlns="http://www.w3.org/2000/svg">
<g clip-path="url(#clip0_0_1)">
<path d="M800 400V0H1600V800H800" fill="#007ACC"/>
<path d="M975.4 401.4V434H1079.4V730H1153.2V434H1257.2V402C1257.2 384 1257.2 369.4 1256.4 369C1256.4 368.4 1193 368.2 1116 368.2L976 368.8V401.6L975.4 401.4ZM1442.8 368C1463.2 372.8 1478.8 382 1492.8 396.6C1500.2 404.6 1511.2 418.6 1512 422.2C1512 423.4 1477.4 446.8 1456.4 459.8C1455.6 460.4 1452.4 457 1449.2 451.8C1438.8 437 1428.2 430.6 1411.6 429.4C1387.6 427.8 1371.6 440.4 1371.6 461.4C1371.6 467.8 1372.8 471.4 1375.2 476.6C1380.6 487.6 1390.6 494.2 1421.6 507.8C1478.8 532.4 1503.6 548.6 1518.6 571.8C1535.6 597.8 1539.4 638.6 1528 669.2C1515.2 702.6 1484 725.2 1439.4 732.6C1425.4 735 1393.4 734.6 1378.4 732C1346.4 726 1315.8 710 1297 689.4C1289.6 681.4 1275.4 660 1276.2 658.6L1283.8 653.8L1313.8 636.4L1336.4 623.2L1341.6 630.2C1348.2 640.6 1363 654.6 1371.6 659.4C1397.6 672.8 1432.4 671 1449.6 655.4C1457 648.6 1460.2 641.4 1460.2 631.4C1460.2 622.2 1458.8 618 1454.2 611C1447.8 602.2 1435 595 1399 579C1357.6 561.4 1340 550.2 1323.6 533C1314.2 522.6 1305.6 506.4 1301.6 493C1298.6 481.4 1297.6 453 1300.4 441.6C1309 401.6 1339.2 373.6 1382.4 365.6C1396.4 362.8 1429.4 364 1443.2 367.6L1442.8 368Z" fill="white"/>
</g>
<path d="M466.972 399.397C466.972 363.537 436.99 334.462 400 334.462C363.015 334.462 333.027 363.537 333.027 399.397C333.027 435.262 363.015 464.335 400 464.335C436.99 464.335 466.972 435.262 466.972 399.397Z" fill="#53C1DE"/>
<path fill-rule="evenodd" clip-rule="evenodd" d="M617.51 278.842C631.652 223.12 649.43 119.787 586.76 84.754C524.383 49.8738 443.21 116.711 400.348 156.829C357.61 117.111 274.158 50.5592 211.541 85.7035C149.188 120.701 168.416 222.32 182.872 278.393C124.708 294.41 25 328.91 25 399.397C25 469.685 124.604 507.22 182.424 523.222C167.915 579.605 149.649 679.772 212.082 714.692C274.932 749.83 358.125 684.862 401.385 644.305C444.523 684.66 524.915 750.053 587.305 715.035C649.89 679.908 633.59 577.96 619.133 521.562C675.182 505.525 775 468.807 775 399.397C775 329.588 674.758 294.808 617.51 278.842ZM610.405 491.675C600.913 462.54 588.1 431.557 572.427 399.552C587.388 368.302 599.703 337.72 608.93 308.772C650.898 320.57 742.963 347.533 742.963 399.397C742.963 451.75 654.615 478.967 610.405 491.675ZM571.25 688.15C524.7 714.275 455.552 651.74 423.695 622.022C444.83 599.61 465.95 573.555 486.562 544.622C522.822 541.505 557.075 536.405 588.14 529.442C598.315 569.335 618.005 661.907 571.25 688.15ZM228.09 687.777C181.536 661.75 202.814 572.365 213.489 530.832C244.208 537.422 278.215 542.163 314.56 545.02C335.307 573.33 357.04 599.353 378.94 622.142C351.883 647.52 274.863 713.925 228.09 687.777ZM57.0373 399.397C57.0373 346.85 148.552 320.083 191.476 308.315C200.863 337.913 213.174 368.86 228.031 400.155C212.981 431.915 200.494 463.352 191.021 493.3C150.092 481.94 57.0373 451.978 57.0373 399.397ZM227.592 112.589C274.337 86.354 346.867 150.246 377.897 179.003C356.11 201.688 334.577 227.515 314.008 255.662C278.735 258.832 244.969 263.923 213.927 270.743C202.281 225.518 180.898 138.795 227.592 112.589ZM509.482 289.428C533.412 292.355 556.34 296.25 577.867 301.015C571.405 321.1 563.35 342.103 553.862 363.633C540.11 338.332 525.347 313.54 509.482 289.428ZM400.357 201.203C415.135 216.724 429.935 234.057 444.495 252.863C414.963 251.507 385.383 251.502 355.85 252.842C370.423 234.212 385.35 216.905 400.357 201.203ZM246.412 363.61C237.082 342.155 229.1 321.06 222.581 300.688C243.98 296.045 266.8 292.25 290.575 289.37C274.665 313.43 259.927 338.213 246.412 363.61ZM291.258 511.642C266.697 508.985 243.531 505.383 222.139 500.867C228.761 480.137 236.919 458.588 246.449 436.67C260.15 462.333 275.113 487.355 291.258 511.642ZM401.245 599.788C386.06 583.9 370.912 566.327 356.12 547.427C385.82 548.557 415.578 548.56 445.275 547.275C430.67 566.52 415.923 584.117 401.245 599.788ZM554.167 435.555C564.193 457.71 572.643 479.142 579.355 499.522C557.607 504.335 534.13 508.21 509.392 511.087C525.375 486.517 540.372 461.34 554.167 435.555ZM468.682 514.853C423.252 518 377.54 517.965 332.095 515.11C306.272 478.538 283.285 440.075 263.442 400.145C283.19 360.298 306.01 321.91 331.71 285.395C377.188 282.063 422.945 282.053 468.423 285.415C493.902 321.928 516.688 360.215 536.893 399.703C516.928 439.53 493.987 477.995 468.682 514.853ZM570.758 111.665C617.515 137.813 596.702 230.681 586.487 271.065C555.372 264.102 521.582 258.922 486.207 255.702C465.597 227.251 444.245 201.38 422.81 178.987C454.237 149.61 524.452 85.7723 570.758 111.665Z" fill="#53C1DE"/>
<defs>
<clipPath id="clip0_0_1">
<rect width="800" height="800" fill="white" transform="translate(800)"/>
</clipPath>
</defs>
</svg>
